<svg width="22" height="22" viewBox="0 0 22 22" fill="none" xmlns="http://www.w3.org/2000/svg">
<path d="M21.2644 8.71162H20.3995V8.66666H10.7366V13H16.8044C15.9192 15.5225 13.5405 17.3333 10.7366 17.3333C7.17902 17.3333 4.29464 14.423 4.29464 10.8333C4.29464 7.2437 7.17902 4.33333 10.7366 4.33333C12.3788 4.33333 13.8728 4.95841 15.0103 5.97945L18.0471 2.91525C16.1296 1.11204 13.5646 0 10.7366 0C4.80731 0 0 4.85062 0 10.8333C0 16.816 4.80731 21.6667 10.7366 21.6667C16.6659 21.6667 21.4732 16.816 21.4732 10.8333C21.4732 10.107 21.3991 9.39791 21.2644 8.71162Z" fill="#FFC107"/>
<path d="M1.23816 5.79095L4.76567 8.40125C5.72016 6.01683 8.03175 4.33333 10.7368 4.33333C12.379 4.33333 13.873 4.95841 15.0105 5.97945L18.0474 2.91525C16.1298 1.11204 13.5649 0 10.7368 0C6.6129 0 3.03654 2.34921 1.23816 5.79095Z" fill="#FF3D00"/>
<path d="M10.7367 21.6667C13.5099 21.6667 16.0298 20.5958 17.935 18.8544L14.612 16.0171C13.4979 16.8721 12.1364 17.3345 10.7367 17.3334C7.9441 17.3334 5.57293 15.5367 4.67965 13.0293L1.17847 15.7512C2.95536 19.2595 6.56392 21.6667 10.7367 21.6667Z" fill="#4CAF50"/>
<path d="M21.2645 8.71158H20.3996V8.66663H10.7367V13H16.8045C16.381 14.2005 15.6183 15.2496 14.6105 16.0176L14.6121 16.0165L17.935 18.8538C17.6999 19.0693 21.4733 16.25 21.4733 10.8333C21.4733 10.1069 21.3992 9.39788 21.2645 8.71158Z" fill="#1976D2"/>
</svg>
